<svg width="4000" height="818" viewBox="0 0 4000 818" fill="none" xmlns="http://www.w3.org/2000/svg">
<path d="M915.294 191.553H1120.31C1268.67 191.553 1306.25 278.786 1306.25 349.884C1306.25 420.983 1267.83 508.216 1120.31 508.216H993.822V757.608H915.294V191.553ZM993.822 440.946H1097.31C1159.57 440.946 1221.83 426.726 1221.83 349.884C1221.83 273.043 1159.57 258.823 1097.31 258.823H993.822V440.946Z" fill="black"/>
<path d="M1408.92 188.829C1438.55 188.848 1462.66 212.099 1463.01 240.992C1463.35 269.885 1439.81 293.677 1410.18 294.369C1380.56 295.062 1355.87 272.397 1354.79 243.521C1354.34 229.216 1359.83 215.339 1370.02 205.041C1380.21 194.742 1394.24 188.896 1408.92 188.829ZM1372.74 378.61H1445.66V757.627H1372.74V378.61Z" fill="black"/>
<path d="M1530.04 378.622H1603.8V437.141H1605.48C1631.2 392.414 1680.88 365.963 1733.37 369.051C1808.81 369.051 1873.6 413.077 1873.6 513.707V757.626H1800.68V533.943C1800.68 462.572 1758.89 436.32 1712.06 436.32C1650.64 436.32 1603.8 474.604 1603.8 562.655V757.626H1530.04V378.622Z" fill="black"/>
<path d="M2008.8 594.645C2008.8 660.826 2071.9 704.035 2140.05 704.035C2182.81 702.823 2222.4 681.792 2246.63 647.425L2302.72 688.994C2261.99 741.381 2197.28 770.676 2129.96 767.208C2006.84 767.208 1929.99 681.063 1929.99 568.118C1927.82 515.41 1948.04 464.163 1985.9 426.477C2023.75 388.791 2075.87 368.005 2129.96 369.027C2266.82 369.027 2319.27 471.307 2319.27 568.938V594.645H2008.8ZM2242.14 536.941C2240.46 473.769 2204.28 427.551 2129.96 427.551C2066.4 427.129 2013.52 475.095 2009.36 536.941H2242.14Z" fill="black"/>
<path d="M2654.15 479.528C2630.14 451.85 2594.56 436.265 2557.39 437.142C2477.18 437.142 2435.95 500.31 2435.95 571.409C2433.93 605.039 2446.3 637.98 2470.11 662.389C2493.92 686.798 2527.05 700.491 2561.6 700.206C2598.11 701.399 2633.06 685.681 2655.83 657.821L2708.28 708.41C2670.12 747.798 2616.27 769.057 2560.76 766.656C2506.18 769.334 2452.98 749.423 2414.26 711.827C2375.54 674.231 2354.9 622.444 2357.42 569.221C2354.96 515.792 2375.53 463.794 2414.15 425.82C2452.78 387.847 2505.94 367.361 2560.76 369.325C2616.92 367.935 2671.08 389.675 2709.96 429.212L2654.15 479.528Z" fill="black"/>
<path d="M2926.45 369.039C3038.76 370.844 3128.48 460.754 3127.25 570.261C3126.02 679.767 3034.3 767.741 2921.99 767.152C2809.67 766.558 2718.93 677.622 2718.92 568.109C2718.91 514.739 2740.88 463.601 2779.9 426.172C2818.92 388.744 2871.72 368.159 2926.45 369.039ZM2926.45 700.185C3004.98 700.185 3054.34 645.495 3054.34 568.109C3054.34 490.723 3004.98 436.307 2926.45 436.307C2847.93 436.307 2798.28 490.997 2798.28 568.109C2798.28 645.222 2847.65 700.185 2926.45 700.185Z" fill="black"/>
<path d="M3192.88 378.604H3266.65V437.124C3292.45 392.353 3342.24 365.905 3394.81 369.033C3470.26 369.033 3535.04 413.06 3535.04 513.691V757.612H3461.28V533.926C3461.28 462.555 3419.5 436.303 3372.94 436.303C3311.24 436.303 3264.68 474.587 3264.68 562.639V757.612H3192.88V378.604Z" fill="black"/>
<path d="M3672.46 594.624C3672.46 660.802 3735.56 704.009 3803.72 704.009C3846.43 702.666 3885.97 681.667 3910.29 647.403L3966.38 688.969C3925.62 740.918 3861.17 769.883 3794.18 766.359C3671.34 766.359 3594.21 680.218 3594.21 567.278C3592.03 514.428 3612.37 463.051 3650.41 425.34C3688.44 387.63 3740.79 366.946 3795.02 368.198C3932.17 368.198 3984.61 470.473 3984.61 568.099V593.804L3672.46 594.624ZM3905.24 536.924C3903.56 473.754 3867.66 427.539 3793.06 427.539C3729.44 426.979 3676.48 475.017 3672.46 536.924H3905.24Z" fill="black"/>
<path fill-rule="evenodd" clip-rule="evenodd" d="M471.826 24.0936C464.116 14.9134 450.95 12.5551 440.534 18.4886L430.803 24.0322L430.679 24.0093L430.659 24.1139L325.85 83.8204L350.42 126.977L418.874 87.9814L402.035 179.236L450.859 188.251L467.791 96.4974L518.212 156.532L556.227 124.585L479.472 33.1965L479.503 33.0244L479.295 32.9859L471.826 24.0936ZM324.08 794.824C349.328 794.824 369.795 774.868 369.795 750.25C369.795 725.633 349.328 705.676 324.08 705.676C298.833 705.676 278.366 725.633 278.366 750.25C278.366 774.868 298.833 794.824 324.08 794.824ZM385.561 550.209L369.091 642.069L320.221 633.302L336.586 542.025L268.375 581.205L243.651 538.136L348.033 478.18L348.056 478.049L348.212 478.077L358.011 472.449C368.389 466.488 381.541 468.781 389.29 477.903L396.851 486.803L396.926 486.816L396.915 486.879L474.358 578.039L436.524 610.2L385.561 550.209ZM425.11 330.935L408.652 422.737L359.782 413.971L376.085 323.035L308.091 361.894L283.461 318.771L387.51 259.306L387.617 258.708L388.331 258.836L397.847 253.398C408.224 247.468 421.351 249.774 429.086 258.887L436.356 267.451L436.487 267.475L436.467 267.583L513.866 358.765L476.019 390.91L425.11 330.935ZM104.667 693.368L104.394 693.554L104.171 693.225L94.0456 690.317C83.3324 687.24 76.2404 677.074 77.0484 665.954L86.0484 542.094L133.05 545.511L127.574 620.869L200.8 571.19L227.251 610.203L155.455 658.912L228.701 679.952L215.694 725.26L104.667 693.368ZM590.296 744.836L590.301 744.844L590.291 744.852L586.988 755.721C583.802 766.205 573.813 773.109 562.883 772.383L552.56 771.698L551.9 772.167L551.517 771.629L436.444 763.986L439.566 716.95L516.258 722.044L466.25 651.718L504.651 624.395L555.789 696.309L577.921 623.484L623.009 637.195L590.296 744.836ZM725.177 489.19L725.322 489.215L725.29 489.393L730.774 499.22C736.394 509.291 734.104 521.931 725.309 529.389L717.018 536.42L716.96 536.747L716.688 536.699L627.257 612.532L596.06 575.717L654.901 525.823L566.796 510.314L575.158 462.783L663.903 478.404L626.686 411.712L668.814 388.189L725.177 489.19ZM634.493 282.027L554.909 324.863L532.047 282.364L610.263 240.264L538.372 211.176L556.464 166.435L665.478 210.544L665.964 210.283L666.279 210.868L676.146 214.861C686.737 219.146 692.871 230.276 690.839 241.522L688.81 252.753L688.826 252.782L688.802 252.795L668.319 366.171L620.841 357.589L634.493 282.027ZM100.963 381.58L189.25 396.607L181.156 444.185L92.111 429.029L130.083 495.958L88.1229 519.778L30.7057 418.577L30.665 418.57L30.6735 418.52L25.1727 408.825C19.4828 398.796 21.6815 386.142 30.4207 378.621L38.6678 371.524L38.7583 370.992L39.1988 371.067L127.517 295.067L158.982 331.653L100.963 381.58ZM234.324 175.801L293.072 241.268L257.168 273.506L197.06 206.523L183.065 282.822L135.61 274.113L156.332 161.138L156.228 161.021L156.379 160.886L158.474 149.463C160.507 138.378 169.941 130.177 181.199 129.708L191.582 129.276L192.131 128.783L192.539 129.236L310.473 124.33L312.478 172.55L234.324 175.801Z" fill="black"/>
</svg>
