<svg width="43" height="46" xmlns="http://www.w3.org/2000/svg" xmlns:xlink="http://www.w3.org/1999/xlink" xml:space="preserve" overflow="hidden"><g transform="translate(-905 -152)"><g><g><g><g><path d="M40.5629 19.0295C40.4489 18.9356 39.4229 18.1666 37.2191 18.1666 36.6491 18.1666 36.0601 18.2229 35.4902 18.3167 35.0722 15.4467 32.6593 14.0586 32.5643 13.9836L31.9753 13.6459 31.5953 14.1899C31.1204 14.9215 30.7594 15.7468 30.5504 16.591 30.1514 18.2229 30.3984 19.7611 31.2343 21.0741 30.2274 21.6369 28.5935 21.7682 28.2515 21.7869L1.27272 21.7869C0.56978 21.7869-0.000205499 22.3497-0.000205499 23.0437-0.0381543 25.3697 0.360788 27.6957 1.17778 29.8903 2.10869 32.2914 3.49568 34.0734 5.2816 35.1614 7.29549 36.3806 10.5823 37.0746 14.2871 37.0746 15.9591 37.0746 17.6309 36.9246 19.2839 36.6245 21.5827 36.2117 23.7867 35.4239 25.8196 34.2797 27.4856 33.3262 28.9868 32.11 30.2653 30.6782 32.4123 28.2959 33.6852 25.6323 34.6161 23.2688L34.9961 23.2688C37.333 23.2688 38.7769 22.3497 39.5749 21.5618 40.1068 21.0741 40.5058 20.4739 40.7908 19.7986L40.9618 19.3109Z" fill="#0091E2" fill-rule="nonzero" fill-opacity="1" transform="matrix(1 0 0 1.01828 906.038 152.022)"/><path d="M3.7807 21.0178 7.3905 21.0178C7.56154 21.0178 7.71354 20.8865 7.71354 20.699L7.71354 17.5101C7.71354 17.3412 7.58052 17.1912 7.3905 17.1912L3.7807 17.1912C3.60973 17.1912 3.45773 17.3225 3.45773 17.5101L3.45773 20.699C3.4767 20.8865 3.60973 21.0178 3.7807 21.0178ZM8.75844 21.0178 12.3683 21.0178C12.5393 21.0178 12.6913 20.8865 12.6913 20.699L12.6913 17.5101C12.6913 17.3412 12.5583 17.1912 12.3683 17.1912L8.75837 17.1912C8.58739 17.1912 8.43539 17.3225 8.43539 17.5101L8.43539 20.699C8.45444 20.8865 8.58746 21.0178 8.75837 21.0178M13.8311 21.0178 17.441 21.0178C17.612 21.0178 17.764 20.8865 17.764 20.699L17.764 17.5101C17.764 17.3412 17.6309 17.1912 17.441 17.1912L13.8311 17.1912C13.6601 17.1912 13.5081 17.3225 13.5081 17.5101L13.5081 20.699C13.5081 20.8865 13.6412 21.0178 13.8311 21.0178ZM18.8279 21.0178 22.4378 21.0178C22.6087 21.0178 22.7607 20.8865 22.7607 20.699L22.7607 17.5101C22.7607 17.3412 22.6277 17.1912 22.4378 17.1912L18.8279 17.1912C18.6569 17.1912 18.5049 17.3225 18.5049 17.5101L18.5049 20.699C18.5049 20.8865 18.6569 21.0178 18.8279 21.0178ZM8.75844 16.4597 12.3682 16.4597C12.5392 16.4597 12.6912 16.3096 12.6912 16.1408L12.6912 12.9519C12.6912 12.7831 12.5582 12.633 12.3682 12.633L8.75837 12.633C8.58739 12.633 8.43539 12.7643 8.43539 12.9519L8.43539 16.1408C8.45444 16.3096 8.58746 16.4597 8.75837 16.4597M13.8311 16.4597 17.441 16.4597C17.612 16.4597 17.764 16.3096 17.764 16.1408L17.764 12.9519C17.764 12.7831 17.6309 12.633 17.441 12.633L13.8311 12.633C13.6601 12.633 13.5081 12.7643 13.5081 12.9519L13.5081 16.1408C13.5081 16.3096 13.6412 16.4597 13.8311 16.4597M18.8279 16.4597 22.4378 16.4597C22.6087 16.4597 22.7607 16.3096 22.7607 16.1408L22.7607 12.9519C22.7607 12.7831 22.6087 12.633 22.4378 12.633L18.8279 12.633C18.6569 12.633 18.5049 12.7643 18.5049 12.9519L18.5049 16.1408C18.5049 16.3096 18.6569 16.4597 18.8279 16.4597M18.8279 11.8827 22.4378 11.8827C22.6087 11.8827 22.7607 11.7514 22.7607 11.5638L22.7607 8.37498C22.7607 8.20612 22.6087 8.05604 22.4378 8.05604L18.8279 8.05604C18.6569 8.05604 18.5049 8.18736 18.5049 8.37498L18.5049 11.5638C18.5049 11.7326 18.6569 11.8827 18.8279 11.8827M23.8626 21.0178 27.4725 21.0178C27.6435 21.0178 27.7955 20.8865 27.7955 20.699L27.7955 17.5101C27.7955 17.3412 27.6625 17.1912 27.4725 17.1912L23.8627 17.1912C23.6916 17.1912 23.5396 17.3225 23.5396 17.5101L23.5396 20.699C23.5587 20.8865 23.6917 21.0178 23.8627 21.0178" fill="#0091E2" fill-rule="nonzero" fill-opacity="1" transform="matrix(1 0 0 1.01828 906.038 152.022)"/></g></g></g></g></g></svg>