<svg width="76" height="45" xmlns="http://www.w3.org/2000/svg" xmlns:xlink="http://www.w3.org/1999/xlink" xml:space="preserve" overflow="hidden"><g transform="translate(-42 0)"><g><g><g><g><path d="M17.5912 11.7305 31.6526 11.7305 31.6526 12.8483 18.8802 12.8483 18.8802 21.2597 30.891 21.2597 30.891 22.3773 18.8802 22.3773 18.8802 31.6124 31.799 31.6124 31.799 32.7299 17.5912 32.7299ZM32.9124 11.7305 34.4064 11.7305 41.0268 20.9656 47.7938 11.7304 56.998 0 41.8763 21.9363 49.6687 32.7299 48.116 32.7299 41.0268 22.9067 33.9082 32.7299 32.385 32.7299 40.2359 21.9361ZM50.2252 12.8483 50.2252 11.7304 66.2494 11.7304 66.2494 12.8481 58.8671 12.8481 58.8671 32.7298 57.5781 32.7298 57.5781 12.8483ZM0 11.7304 1.61118 11.7304 23.8285 44.9767 14.6473 32.7298 1.34748 13.3187 1.28895 32.7301 2.84522e-15 32.7301ZM66.1195 31.2748C65.8561 31.2748 65.6586 31.071 65.6586 30.8071 65.6586 30.5436 65.8561 30.3394 66.1195 30.3394 66.386 30.3394 66.5803 30.5434 66.5803 30.8071 66.5803 31.0708 66.386 31.2748 66.1195 31.2748ZM67.386 30.0444 68.0758 30.0444C68.0851 30.4179 68.3578 30.6691 68.7591 30.6691 69.2075 30.6691 69.4614 30.3991 69.4614 29.8937L69.4614 26.6918 70.1637 26.6918 70.1637 29.8968C70.1637 30.8071 69.637 31.3315 68.7654 31.3315 67.9471 31.3315 67.386 30.8229 67.386 30.0443ZM71.0822 30.0037 71.7782 30.0037C71.8378 30.4337 72.2579 30.7067 72.863 30.7067 73.4273 30.7067 73.8411 30.4147 73.8411 30.013 73.8411 29.6677 73.5777 29.4605 72.9789 29.3193L72.3958 29.1781C71.5774 28.9864 71.2045 28.591 71.2045 27.9255 71.2045 27.1188 71.8628 26.582 72.8503 26.582 73.7689 26.582 74.4398 27.1187 74.4806 27.8815L73.7971 27.8815C73.7313 27.4641 73.3676 27.2034 72.8409 27.2034 72.2861 27.2034 71.9163 27.4703 71.9163 27.8783 71.9163 28.2016 72.1543 28.387 72.7438 28.525L73.2422 28.6475C74.1702 28.8641 74.5527 29.2408 74.5527 29.922 74.5527 30.7884 73.8819 31.3315 72.8097 31.3315 71.8065 31.3315 71.1323 30.8134 71.0822 30.0035Z" fill="#000000" fill-rule="nonzero" fill-opacity="1" transform="matrix(1.006 0 0 1 43 0.0116634)"/></g></g></g></g></g></svg>