<svg width="32" height="38" xmlns="http://www.w3.org/2000/svg" xmlns:xlink="http://www.w3.org/1999/xlink" xml:space="preserve" overflow="hidden"><defs><clipPath id="clip0"><rect x="346" y="0" width="32" height="38"/></clipPath><clipPath id="clip1"><rect x="346" y="0" width="32" height="38"/></clipPath><clipPath id="clip2"><rect x="347" y="0" width="31" height="38"/></clipPath><clipPath id="clip3"><rect x="347" y="0" width="31" height="38"/></clipPath><clipPath id="clip4"><rect x="347" y="0" width="31" height="38"/></clipPath></defs><g clip-path="url(#clip0)" transform="translate(-346 0)"><g clip-path="url(#clip1)"><g clip-path="url(#clip2)"><g clip-path="url(#clip3)"><g clip-path="url(#clip4)"><path d="M-3.58148 6.20331C-7.00747 4.22531-8.1813-0.155489-6.20331-3.58148-4.22531-7.00747 0.155489-8.1813 3.58148-6.20331 7.00747-4.22531 8.1813 0.155489 6.20331 3.58148 5.57463 4.67039 4.67039 5.57463 3.58148 6.20331L1.42482 2.46786C2.78778 1.68095 3.25477-0.0618581 2.46786-1.42482 1.68095-2.78778-0.0618581-3.25477-1.42482-2.46786-2.78778-1.68095-3.25477 0.0618581-2.46786 1.42482-2.21775 1.85802-1.85802 2.21775-1.42482 2.46786L-3.58148 6.20331Z" fill="#FF0101" fill-rule="nonzero" fill-opacity="1" transform="matrix(1.00444 0 0 1 362.397 7.19892)"/><path d="M-3.58148 6.20331C-7.00747 4.22531-8.1813-0.155489-6.20331-3.58148-4.22531-7.00747 0.155489-8.1813 3.58148-6.20331 7.00747-4.22531 8.1813 0.155489 6.20331 3.58148 5.57463 4.67039 4.67039 5.57463 3.58148 6.20331L1.42482 2.46786C2.78778 1.68095 3.25477-0.0618581 2.46786-1.42482 1.68095-2.78778-0.0618581-3.25477-1.42482-2.46786-2.78778-1.68095-3.25477 0.0618581-2.46786 1.42482-2.21775 1.85802-1.85802 2.21775-1.42482 2.46786L-3.58148 6.20331Z" fill="#0101FF" fill-rule="nonzero" fill-opacity="1" transform="matrix(-1.00444 1.22465e-16 -1.23009e-16 -1 370.609 21.3396)"/><path d="M-3.58546 6.21021C-7.01527 4.23001-8.1904-0.155662-6.21021-3.58546-4.23001-7.01527 0.155662-8.1904 3.58546-6.21021 7.01527-4.23001 8.1904 0.155662 6.21021 3.58546 5.58083 4.67558 4.67558 5.58083 3.58546 6.21021L1.4264 2.4706C2.79088 1.68282 3.25838-0.0619269 2.4706-1.4264 1.68282-2.79088-0.0619269-3.25838-1.4264-2.4706-2.79088-1.68282-3.25838 0.0619269-2.4706 1.4264-2.22022 1.86009-1.86009 2.22022-1.4264 2.4706L-3.58546 6.21021Z" fill="#01FF01" fill-rule="nonzero" fill-opacity="1" transform="matrix(-0.501663 -0.865063 0.868905 -0.499445 354.339 21.3396)"/><path d="M2.18436 30.22C2.79061 30.1655 3.40355 30.166 4.00671 30.2524 4.37848 30.3182 4.77288 30.4144 5.0521 30.6854 5.34468 31.0119 5.41667 31.4654 5.48095 31.8835 5.58636 32.751 5.57402 33.6308 5.48095 34.4988 5.41873 34.9225 5.35754 35.3801 5.07986 35.7246 4.777 36.0321 4.32963 36.1195 3.9193 36.1843 3.31356 36.2599 2.69908 36.2774 2.09077 36.2167 1.67889 36.1746 1.24901 36.1021 0.898322 35.8671 0.671556 35.7231 0.549689 35.4691 0.466901 35.2228 0.300812 34.7096 0.279729 34.1645 0.257104 33.6297 0.254533 32.9232 0.267903 32.2095 0.40571 31.5143 0.480271 31.1898 0.570771 30.833 0.844844 30.6165 1.23101 30.3362 1.72208 30.2684 2.18436 30.22ZM2.28463 31.1883C2.79832 31.1471 3.32281 31.1348 3.83085 31.2346 4.02779 31.2742 4.26022 31.3698 4.29724 31.594 4.4515 32.2249 4.41551 32.8821 4.42168 33.5269 4.40265 33.9856 4.41345 34.4597 4.2597 34.8988 4.12549 35.1873 3.75989 35.2109 3.48428 35.2531 2.9315 35.2845 2.35765 35.3122 1.82133 35.1482 1.57399 35.0829 1.49583 34.8176 1.45778 34.5949 1.35494 33.9352 1.38836 33.2641 1.40122 32.5993 1.42847 32.2265 1.42384 31.8398 1.55805 31.4855 1.7118 31.2479 2.02958 31.2268 2.28463 31.1883Z" fill="#050505" fill-rule="evenodd" fill-opacity="1" transform="matrix(1.00444 0 0 1 347.005 1.48623e-15)"/><path d="M7.7013 32.2296C8.06947 31.9956 8.5266 31.9575 8.95134 31.9961 9.34779 32.03 9.78796 32.1648 10.0003 32.5299 10.2538 32.988 10.2682 33.5295 10.2857 34.0406 10.2744 34.5661 10.2646 35.1148 10.0476 35.6033 9.92371 35.9 9.63884 36.0943 9.33391 36.171 8.86701 36.2856 8.35383 36.298 7.9039 36.1118 7.66068 36.0167 7.49253 35.81 7.35318 35.5981 7.35318 36.3988 7.35318 37.1994 7.35318 38L6.32476 38C6.32528 36.0121 6.32373 34.0236 6.32528 32.0357 6.65797 32.0342 6.99066 32.0342 7.32284 32.0357 7.31153 32.2403 7.30022 32.4445 7.29456 32.6497 7.41797 32.499 7.53264 32.3334 7.7013 32.2296ZM8.03605 32.7664C8.32401 32.7443 8.62842 32.7381 8.89786 32.8569 9.06858 32.9304 9.15857 33.1109 9.1889 33.2857 9.27838 33.7367 9.26706 34.2026 9.23518 34.6592 9.2033 34.9348 9.15908 35.2917 8.8557 35.3986 8.50501 35.5133 8.10495 35.5205 7.75838 35.3863 7.43597 35.2505 7.39843 34.8602 7.36655 34.5574 7.34752 34.0925 7.32438 33.6143 7.45551 33.1628 7.52493 32.9068 7.79129 32.7854 8.03605 32.7664Z" fill="#050505" fill-rule="evenodd" fill-opacity="1" transform="matrix(1.00444 0 0 1 347.005 1.48623e-15)"/><path d="M11.5162 32.2373C12.0217 31.9776 12.6135 31.9683 13.1684 31.9946 13.6301 32.0331 14.1906 32.1103 14.4451 32.552 14.7321 33.0852 14.6853 33.7125 14.7254 34.2977 13.7875 34.2977 12.8496 34.2977 11.9122 34.2977 11.9451 34.5995 11.906 34.925 12.0582 35.2017 12.1883 35.4202 12.4644 35.465 12.6979 35.4778 12.9863 35.4799 13.2969 35.5035 13.5628 35.3693 13.715 35.25 13.716 35.0382 13.7355 34.8633 14.0646 34.8628 14.3937 34.8628 14.7228 34.8633 14.7105 35.2068 14.6663 35.5914 14.3906 35.8331 13.9767 36.2044 13.3843 36.243 12.8547 36.2532 12.3873 36.2393 11.8936 36.2157 11.4751 35.9853 11.1362 35.7853 11.0282 35.3745 10.9686 35.0125 10.893 34.4746 10.874 33.9264 10.9382 33.3865 10.9907 32.9602 11.1054 32.4589 11.5162 32.2373ZM12.1173 32.8919C12.3981 32.7211 12.7457 32.7556 13.0609 32.7602 13.2563 32.7813 13.4944 32.7926 13.6214 32.9654 13.751 33.1788 13.7278 33.44 13.7288 33.6796 13.1236 33.6806 12.5189 33.6822 11.9142 33.6791 11.9235 33.4127 11.9024 33.0878 12.1173 32.8919Z" fill="#050505" fill-rule="evenodd" fill-opacity="1" transform="matrix(1.00444 0 0 1 347.005 1.48623e-15)"/><path d="M16.9154 32.2347C17.2712 31.9879 17.7309 31.9534 18.1495 32.0018 18.5058 32.0393 18.8833 32.175 19.0936 32.4825 19.2802 32.7376 19.3322 33.0626 19.3347 33.3716 19.3332 34.3147 19.3353 35.2572 19.3342 36.2003 19.0082 36.2008 18.6827 36.2008 18.3578 36.2003 18.3562 35.3081 18.3588 34.4165 18.3562 33.5248 18.3464 33.33 18.3542 33.1047 18.2076 32.9546 18.0513 32.7854 17.806 32.7525 17.5875 32.754 17.3232 32.7525 17.0373 32.7978 16.8336 32.9803 16.6346 33.15 16.5591 33.4235 16.558 33.6765 16.5565 34.5178 16.5585 35.359 16.557 36.1998 16.2315 36.2008 15.906 36.2008 15.581 36.2003 15.5805 34.8119 15.5805 33.4235 15.581 32.0352 15.9009 32.0342 16.2212 32.0347 16.5411 32.0352 16.5395 32.2789 16.5153 32.5211 16.5081 32.7648 16.613 32.5679 16.7231 32.3602 16.9154 32.2347Z" fill="#050505" fill-rule="evenodd" fill-opacity="1" transform="matrix(1.00444 0 0 1 347.005 1.48623e-15)"/><path d="M21.1026 30.4103C21.6415 30.2293 22.2159 30.2036 22.7794 30.1835 23.3255 30.1861 23.8963 30.1912 24.4064 30.4113 24.6655 30.5193 24.845 30.7558 24.9324 31.017 25.0749 31.4073 25.079 31.83 25.0821 32.2409 24.7062 32.2409 24.3303 32.2419 23.9549 32.2403 23.9487 31.9514 23.9709 31.6274 23.7919 31.3816 23.6109 31.1965 23.3281 31.197 23.088 31.1687 22.5995 31.1595 22.0909 31.1281 21.623 31.2968 21.4543 31.3503 21.3669 31.5189 21.333 31.6814 21.2368 32.1175 21.2363 32.5674 21.2368 33.0122 21.2425 33.6066 21.2332 34.2098 21.3602 34.7944 21.3936 35.0083 21.5906 35.14 21.788 35.1873 22.2447 35.3009 22.7213 35.2845 23.1877 35.2567 23.4309 35.2248 23.7271 35.2089 23.8798 34.9857 24.0428 34.7193 24.0156 34.3918 24.0068 34.0925 24.3863 34.091 24.7653 34.0915 25.1448 34.0925 25.1402 34.5651 25.1319 35.0531 24.9602 35.5004 24.8717 35.7344 24.6892 35.9329 24.4527 36.0224 23.9883 36.2085 23.4793 36.2203 22.9867 36.2501 22.4154 36.2599 21.8369 36.246 21.2785 36.1129 20.9509 36.0275 20.593 35.8773 20.4413 35.5519 20.2475 35.1215 20.212 34.6427 20.1621 34.1794 20.1205 33.5675 20.0937 32.9546 20.1086 32.3417 20.1379 31.8454 20.1832 31.3225 20.4511 30.89 20.5935 30.6494 20.8434 30.4987 21.1026 30.4103Z" fill="#050505" fill-rule="evenodd" fill-opacity="1" transform="matrix(1.00444 0 0 1 347.005 1.48623e-15)"/><path d="M25.3299 30.237C25.7217 30.2375 26.1136 30.2262 26.5049 30.2427 26.8859 31.4516 27.3045 32.6481 27.6891 33.8555 27.8387 34.3193 27.9447 34.7965 28.0994 35.2588 28.2727 34.76 28.3838 34.2416 28.5535 33.7418 28.9294 32.5741 29.3155 31.4099 29.6909 30.2421 30.0776 30.2257 30.4653 30.2401 30.8525 30.2349L30.8525 30.363C30.2159 32.3031 29.5942 34.2483 28.9705 36.1931 28.3884 36.2049 27.8053 36.2064 27.2232 36.192 26.6031 34.2036 25.9531 32.2244 25.3299 30.237Z" fill="#050505" fill-rule="evenodd" fill-opacity="1" transform="matrix(1.00444 0 0 1 347.005 1.48623e-15)"/></g></g></g></g></g></svg>