<svg width="37" height="39" xmlns="http://www.w3.org/2000/svg" xmlns:xlink="http://www.w3.org/1999/xlink" xml:space="preserve" overflow="hidden"><g transform="translate(-260 -221)"><g><g><g><g><path d="M24.1062 18.9584 30.7384 7.5064 33.943 18.9584 30.7382 30.4077 24.1062 18.9584ZM20.8738 20.8182 27.5068 32.2683 15.955 29.3089 7.60954 20.8182 20.8738 20.8182ZM27.5054 5.64518 20.8738 17.0972 7.60954 17.0972 15.955 8.60588 27.5054 5.64518ZM36.9731 15.061 32.9271 0.00866756 17.8253 4.0427 15.5898 7.973 11.0536 7.9405 0 18.9594 11.0536 29.9758 11.054 29.9758 15.5883 29.9422 17.827 33.8725 32.9271 37.9059 36.9729 22.8564 34.6752 18.9586 36.9729 15.0613Z" fill="#222C37" fill-rule="nonzero" fill-opacity="1" transform="matrix(1.0005 0 0 1 260 222)"/></g></g></g></g></g></svg>